<svg width="120" height="80" viewBox="0 0 120 80" fill="none" xmlns="http://www.w3.org/2000/svg">
  <!-- Scooter body -->
  <path d="M20 60 L100 60 L105 50 L15 50 Z" fill="#1A4DFF" stroke="#0066FF" stroke-width="2" rx="5"/>
  <!-- Wheels -->
  <circle cx="30" cy="65" r="8" fill="#333" stroke="#666" stroke-width="2"/>
  <circle cx="90" cy="65" r="10" fill="#333" stroke="#666" stroke-width="2"/>
  <!-- Wheel spokes -->
  <g stroke="#666" stroke-width="1">
    <line x1="30" y1="57" x2="30" y2="73"/>
    <line x1="22" y1="65" x2="38" y2="65"/>
    <line x1="24.5" y1="59.5" x2="35.5" y2="70.5"/>
    <line x1="35.5" y1="59.5" x2="24.5" y2="70.5"/>
  </g>
  <g stroke="#666" stroke-width="1">
    <line x1="90" y1="55" x2="90" y2="75"/>
    <line x1="80" y1="65" x2="100" y2="65"/>
    <line x1="83" y1="58" x2="97" y2="72"/>
    <line x1="97" y1="58" x2="83" y2="72"/>
  </g>
  <!-- Handlebar -->
  <path d="M40 35 L45 25 L50 35" stroke="#1A4DFF" stroke-width="3" fill="none"/>
  <circle cx="47.5" cy="30" r="3" fill="#1A4DFF"/>
  <!-- Seat -->
  <ellipse cx="65" cy="45" rx="8" ry="3" fill="#1A4DFF"/>
  <!-- Battery indicator -->
  <rect x="55" y="52" width="15" height="6" fill="#00FF00" stroke="#009900" stroke-width="1" rx="2"/>
  <!-- Electric bolt -->
  <path d="M75 20 L80 15 L85 20 L82 23 L87 28 L80 25 L73 28 L78 23 Z" fill="#FFD700" stroke="#FFA500" stroke-width="1"/>
  <!-- Speed lines -->
  <g stroke="#1A4DFF" stroke-width="2" opacity="0.6">
    <line x1="105" y1="60" x2="115" y2="60"/>
    <line x1="106" y1="58" x2="114" y2="58"/>
    <line x1="105" y1="62" x2="115" y2="62"/>
  </g>
</svg>